<svg xmlns="http://www.w3.org/2000/svg" viewBox="0 0 90 89.1"><path d="M61.2 45.6c-.1-.1-.1-.2-.2-.3 0-.1-.1-.1-.1-.2-.1-.1-.1-.3-.1-.4v-.2c0-.1 0-.3.1-.4V44c.1-.1.1-.3.2-.4 0 0 0-.1.1-.1l25.2-24.9-15-15.1-25.4 25c-.1.1-.2.1-.3.2-.1 0-.1.1-.2.1s-.2.1-.3.1H45c-.1 0-.2 0-.3-.1h-.2c-.1 0-.2-.1-.3-.2-.1 0-.2-.1-.2-.1l-25.3-25L3.5 18.6l25.2 24.9c.1.1.1.2.2.3 0 .1.1.1.1.2.1.1.1.3.1.4v.1c0 .2 0 .3-.1.5s-.2.3-.3.5l-25.2 25 15.1 15.1 25.3-25s.1 0 .1-.1c.1-.1.2-.2.4-.3h.1c.1 0 .3-.1.4-.1h.1c.2 0 .3 0 .5.1h.1c.1.1.3.2.4.3l25.4 25 15.1-15.1-25.3-24.8c.1 0 .1 0 0 0z" fill="none"/><path d="M64.3 44.5l25.2-24.9c.3-.3.4-.6.4-1s-.2-.8-.4-1L72.4.4c-.6-.6-1.5-.6-2 0L45 25.5 19.6.5c-.6-.6-1.5-.6-2 0L.4 17.6c-.3.3-.4.6-.4 1s.2.8.4 1l25.2 24.9L.4 69.4c-.3.3-.4.6-.4 1s.2.8.4 1l17.2 17.1c.3.3.7.4 1 .4.4 0 .7-.1 1-.4l25.4-25 25.4 25c.3.3.7.4 1 .4.4 0 .7-.1 1-.4l17.2-17.1c.3-.3.4-.6.4-1s-.2-.8-.4-1L64.3 44.5zm7.1 41.1L46 60.5c-.1-.1-.3-.2-.4-.3h-.1c-.2-.1-.3-.1-.5-.1h-.1c-.1 0-.3 0-.4.1h-.1c-.1.1-.3.2-.4.3 0 0-.1 0-.1.1l-25.3 25L3.5 70.5l25.2-24.9c.1-.1.2-.3.3-.5.1-.2.1-.3.1-.5v-.1c0-.2 0-.3-.1-.4 0-.1-.1-.1-.1-.2-.1-.1-.1-.2-.2-.3l-25.2-25L18.6 3.5l25.4 25c.1.1.1.1.2.1.1.1.2.1.3.2h.2c.1 0 .2.1.3.1h.2c.1 0 .2 0 .3-.1.1 0 .1-.1.2-.1.1-.1.2-.1.3-.2l25.4-25 15.1 15.1-25.2 24.9s0 .1-.1.1c-.1.1-.2.2-.2.4v.1c0 .1-.1.3-.1.4v.2c0 .1 0 .3.1.4 0 .1.1.1.1.2.1.1.1.2.2.3l25.2 24.9-15.1 15.1z"/></svg>