<svg xmlns="http://www.w3.org/2000/svg" viewBox="0 0 235.6 235.6"><path d="M231.2 61.3l-10.9-2.6c-14.5-1.9-16-9.5-16-9.5-2.6-11.6-12.8-20.3-25.4-20.3-17.1 0-47.8 15.3-40 70.5 0 0 2.5 11.4-2.1 9.8-7.4-1.4-15.3-2.1-23.5-1.9-12.2.3-23.7 2.5-33.9 6.1-17.1 6-47.4 16.7-72.2 6.1-2.2-.9-4.6-.3-6.1 1.6-1.5 1.9-1.6 4.6-.4 6.7 11.1 19.3 30.8 45.2 56 62.3 14.7 10 35.5 17.2 59.1 16.6 36.6-.9 65.4-19 73.5-41.2 4.9-13.3 9.8-35.4-10.4-62.8-4.7-6.3-2.8-15.4 13.5-24.4 5.1-2.8 12.4-6.9 38.7-9.5 3.8-.3 7.9-4.6.1-7.5z" fill="#ffdc0b"/></svg>