<svg version="1.1" id="Calque_1" xmlns="http://www.w3.org/2000/svg" x="0" y="0" viewBox="0 0 66 58.9" xml:space="preserve"><style>.st0{fill:#fc0000}</style><g id="XMLID_1_"><path class="st0" d="M63 17.2v2.9c0 2.9-.3 6.6-2.9 11.3-3.4 6.5-10.9 14.5-27.1 24.2C16.8 45.9 9.3 37.8 5.9 31.5S3 20.6 3 17.2C3 9.4 9.4 3 17.2 3h.1c7.8 0 14.2 6.3 14.2 14.2 0 .8.7 1.5 1.5 1.5s1.5-.7 1.5-1.5c.2-7.9 6.8-14.1 14.6-13.8 7.6.2 13.7 6.3 13.9 13.8z"/><path class="st0" d="M31.5 17.2C31.5 9.3 25.1 3 17.3 3h-.1C9.4 3 3 9.4 3 17.2c0 3.3-.6 7.9 2.8 14.2s11 14.5 27.2 24.2c16.2-9.7 23.7-17.7 27.1-24.1C62.7 26.7 63 23 63 20.1v-2.9c-.2-7.5-6.3-13.6-13.9-13.8-7.8-.2-14.4 6-14.6 13.8 0 .8-.7 1.5-1.5 1.5s-1.5-.7-1.5-1.5zM17.3 0c6.8 0 13 4 15.8 10.2C35.8 4 42-.1 48.8 0 58.3 0 66 7.7 66 17.2c0 3 .6 8.6-3.2 15.7s-11.9 15.7-29 25.8c-.5.3-1 .3-1.5 0C15.2 48.6 7.1 40 3.3 32.9S.1 20.2.1 17.2C.1 7.7 7.8 0 17.3 0z"/></g></svg>