<svg data-name="Calque 1" xmlns="http://www.w3.org/2000/svg" viewBox="0 0 44 60"><path d="M22 27C9.89 27 0 36.59 0 48.43a12 12 0 001.89 7.08A9.53 9.53 0 007.07 59c4.13 1.27 9.31 1 14.93 1s10.8.31 14.93-1a9.53 9.53 0 005.18-3.5A12 12 0 0044 48.43C44 36.59 34.11 27 22 27zm0 3c10.53 0 19 8.26 19 18.43a9 9 0 01-1.33 5.35 6.43 6.43 0 01-3.61 2.36c-3.29 1-8.36.83-14.06.83s-10.77.18-14.06-.83a6.43 6.43 0 01-3.61-2.36A9 9 0 013 48.43C3 38.26 11.47 30 22 30zm0-30a12 12 0 1012 12A12 12 0 0022 0zm0 3a9 9 0 11-9 9 9 9 0 019-9z"/></svg>